<svg width="77" height="77" viewBox="0 0 77 77" fill="none" xmlns="http://www.w3.org/2000/svg">
<path d="M76.6 38.7C76.6 59.8602 59.4602 77 38.3 77C17.1398 77 0 59.8602 0 38.7C0 17.5398 17.1398 0.400024 38.3 0.400024C59.4602 0.400024 76.6 17.5398 76.6 38.7Z" fill="#E88900"/>
<path d="M13.8247 30.377C13.8247 30.377 33.7858 9.56946 38.3705 9.56946C42.391 9.56946 62.7753 30.377 62.7753 30.377C62.7753 30.377 61.9289 30.377 61.0825 30.377C52.6889 30.377 25.1101 30.377 15.3059 30.377C14.6711 30.3065 13.8247 30.377 13.8247 30.377Z" fill="#D0E9ED"/>
<path d="M62.3521 30.3064C62.3521 30.3064 42.3205 9.63995 38.2295 9.63995C33.7153 9.63995 13.8952 30.5886 13.8952 30.5886C13.8952 30.5886 33.7153 11.0506 38.2295 11.0506C42.391 11.0506 62.3521 30.3064 62.3521 30.3064Z" fill="#E1F2F8"/>
<path d="M13.8952 30.3065C13.8952 30.3065 33.7153 52.8774 38.2295 52.8774C42.3205 52.8774 62.7048 30.3065 62.7048 30.3065C62.7048 30.3065 61.9289 30.8002 61.0825 30.8002C52.689 30.8002 25.1101 30.8002 15.3059 30.8002C14.6711 30.8002 13.8952 30.3065 13.8952 30.3065Z" fill="#98AEB3"/>
<path d="M58.3316 22.1245H18.3388V49.3507H58.3316V22.1245Z" fill="white"/>
<path d="M13.8247 30.3065V58.238C13.8247 59.0844 14.6006 59.7897 15.5175 59.7897H61.0825C61.9994 59.7897 62.7753 59.0844 62.7753 58.238V30.3065L57.9085 30.377L38.3 45.6124L19.6085 30.3065H13.8247Z" fill="#D0E9ED"/>
<path d="M57.979 30.3065L38.3 45.6124L19.6085 30.3065H13.8247V58.238C13.8247 59.0844 14.6006 59.7897 15.5175 59.7897H61.0825C61.9994 59.7897 62.7753 59.0844 62.7753 58.238V30.3065H57.979ZM61.7878 57.7442C61.7878 58.5907 61.0825 59.296 60.1656 59.296H16.4344C15.5175 59.296 14.8122 58.5907 14.8122 57.7442V30.8708H19.0442L38.3 46.7409L58.2611 30.8708H61.7878V57.7442Z" fill="#E1F2F8"/>
<path opacity="0.5" d="M43.0258 41.874L43.9427 42.2267L60.8004 57.6737L41.333 43.0731L43.0258 41.874Z" fill="#98AEB3"/>
<path opacity="0.5" d="M33.4332 41.5919L32.3752 42.1562L16.0113 58.0264L35.2671 43.0731L33.4332 41.5919Z" fill="#98AEB3"/>
<path d="M14.2479 59.296C14.2479 59.296 33.7858 41.5214 38.3705 41.5214C42.4615 41.5214 62.4932 59.296 62.4932 59.296C62.4932 59.296 61.9995 59.7897 61.153 59.7897C52.7595 59.7897 25.1807 59.7897 15.3764 59.7897C14.6711 59.7897 14.2479 59.296 14.2479 59.296Z" fill="#D0E9ED"/>
<path d="M61.2941 58.1674C61.0825 58.3085 60.8004 58.379 60.5182 58.379C52.3363 58.379 25.4628 58.379 15.8702 58.379C15.6586 58.379 15.447 58.3085 15.3059 58.1674C14.6006 58.8728 14.2479 59.2254 14.2479 59.2254C14.2479 59.2254 14.6711 59.7897 15.3059 59.7897C25.1101 59.7897 52.689 59.7897 61.0825 59.7897C61.9289 59.7897 62.4227 59.2254 62.4227 59.2254C62.4227 59.2254 61.9995 58.8728 61.2941 58.1674Z" fill="#E1F2F8"/>
<path d="M62.3521 59.3665C62.3521 59.3665 42.3205 41.5919 38.2295 41.5919C33.7153 41.5919 14.1068 59.3665 14.1068 59.3665C14.1068 59.3665 33.7153 42.0151 38.2295 42.0151C42.3205 42.0151 62.3521 59.3665 62.3521 59.3665Z" fill="#E1F2F8"/>
</svg>
